<?xml version="1.0" encoding="UTF-8"?>
<svg width="1200pt" height="1200pt" version="1.1" viewBox="0 0 1200 1200" xmlns="http://www.w3.org/2000/svg">
 <path d="m1095 847.5h-90v-225c0-24.797-20.203-45-45-45h-137.29c-4.4531-7.6875-11.016-14.109-19.453-18.141l-174.24-82.969c-2.1094-1.0312-4.3594-1.5-6.5156-2.25v-121.64h112.5c24.797 0 45-20.203 45-45v-135c0-24.797-20.203-45-45-45h-270c-24.797 0-45 20.203-45 45v135c0 24.797 20.203 45 45 45h112.5v121.64c-2.1562 0.79688-4.4062 1.2656-6.5156 2.25l-174.24 82.969c-8.4844 4.0312-15.047 10.453-19.453 18.141h-137.29c-24.797 0-45 20.203-45 45v225h-90c-24.797 0-45 20.203-45 45v135c0 24.797 20.203 45 45 45h225c24.797 0 45-20.203 45-45v-135c0-24.797-20.203-45-45-45h-90v-225h137.29c4.4531 7.6875 11.016 14.109 19.453 18.141l174.24 82.969c2.1094 1.0312 4.3594 1.5 6.5156 2.25v121.64h-90c-24.797 0-45 20.203-45 45v135c0 24.797 20.203 45 45 45h225c24.797 0 45-20.203 45-45v-135c0-24.797-20.203-45-45-45h-90v-121.64c2.1562-0.79688 4.4062-1.2656 6.5156-2.25l174.24-82.969c8.4844-4.0312 15.047-10.453 19.453-18.141h137.29v225h-90c-24.797 0-45 20.203-45 45v135c0 24.797 20.203 45 45 45h225c24.797 0 45-20.203 45-45v-135c0-24.797-20.203-45-45-45zm-630-675h270l0.046875 135h-270.05zm-134.95 855h-225.05v-135h225zm382.5 0h-225.05v-135h225zm-102.84-344.53c-6.1406 2.9062-13.219 2.9062-19.359 0l-174.24-82.969 174.24-82.969c6.1406-2.9062 13.219-2.9062 19.359 0l174.24 82.969zm260.29 344.53v-135h225l0.046875 135z" fill="#ff814a"/>
</svg>
