<svg width="120pt" height="120pt" version="1.1" viewBox="0 0 1200 1200" xmlns="http://www.w3.org/2000/svg">
 <path d="m1040.4 30h-880.8c-72 0-129.6 58.801-129.6 129.6v879.6c0 72 58.801 129.6 129.6 129.6h879.6c72 0 129.6-58.801 129.6-129.6l-0.003907-879.6c1.1992-70.801-57.602-129.6-128.4-129.6zm-880.8 61.199h879.6c38.398 0 69.602 31.199 69.602 69.602l-0.003907 139.2h-1017.6v-140.4c0-37.203 31.199-68.402 68.402-68.402zm679.2 270v208.8h-208.8v-208.8zm-268.8 208.8h-208.8v-208.8h208.8zm-270 0h-208.8v-208.8h208.8zm0 60v208.8h-208.8v-208.8zm61.199 0h208.8v208.8h-208.8zm208.8 270v208.8h-208.8v-208.8zm60 0h208.8v208.8h-208.8zm0-61.199v-208.8h208.8v208.8zm270-208.8h208.8v208.8h-208.8zm0-60v-208.8h208.8v208.8zm-808.8 470.4v-140.4h208.8v208.8h-140.4c-37.203 0-68.402-31.199-68.402-68.402zm949.2 68.402h-140.4v-208.8h208.8v139.2c0 38.402-31.199 69.602-68.402 69.602z" fill="#ff814a"/>
</svg>
